<?xml version="1.0" encoding="UTF-8" standalone="no"?>
<svg
   xmlns:dc="http://purl.org/dc/elements/1.1/"
   xmlns:cc="http://creativecommons.org/ns#"
   xmlns:rdf="http://www.w3.org/1999/02/22-rdf-syntax-ns#"
   xmlns:svg="http://www.w3.org/2000/svg"
   xmlns="http://www.w3.org/2000/svg"
   xmlns:sodipodi="http://sodipodi.sourceforge.net/DTD/sodipodi-0.dtd"
   xmlns:inkscape="http://www.inkscape.org/namespaces/inkscape"
   width="9.6627121"
   height="9.6627064"
   viewBox="0 0 9.6627121 9.6627064"
   version="1.1"
   id="svg4"
   sodipodi:docname="instagram.svg"
   inkscape:version="1.0.2 (e86c870879, 2021-01-15)">
  <metadata
     id="metadata10">
    <rdf:RDF>
      <cc:Work
         rdf:about="">
        <dc:format>image/svg+xml</dc:format>
        <dc:type
           rdf:resource="http://purl.org/dc/dcmitype/StillImage" />
        <dc:title></dc:title>
      </cc:Work>
    </rdf:RDF>
  </metadata>
  <defs
     id="defs8" />
  <sodipodi:namedview
     pagecolor="#ffffff"
     bordercolor="#666666"
     borderopacity="1"
     objecttolerance="10"
     gridtolerance="10"
     guidetolerance="10"
     inkscape:pageopacity="0"
     inkscape:pageshadow="2"
     inkscape:window-width="1920"
     inkscape:window-height="1015"
     id="namedview6"
     showgrid="false"
     inkscape:zoom="16.309417"
     inkscape:cx="12"
     inkscape:cy="17.219316"
     inkscape:window-x="0"
     inkscape:window-y="0"
     inkscape:window-maximized="1"
     inkscape:current-layer="svg4" />
  <path
     d="m 4.8313542,0.87085164 c 1.2899717,0 1.4429646,0.004835 1.9526724,0.0281825 1.309297,0.0595867 1.9208656,0.68081836 1.980453,1.98045266 0.023349,0.5093052 0.027783,0.6622981 0.027783,1.9522698 0,1.2903741 -0.00486,1.4429644 -0.027783,1.9522697 -0.059992,1.2984263 -0.6699484,1.9208659 -1.980453,1.9804526 -0.5097078,0.023349 -0.6618955,0.028184 -1.9526724,0.028184 -1.2899715,0 -1.4429644,-0.00486 -1.9522697,-0.028184 C 1.5665666,8.7044897 0.95821856,8.0804399 0.89863191,6.783624 0.87528035,6.2743188 0.87044897,6.1217285 0.87044897,4.8313542 c 0,-1.2899715 0.005236,-1.4425618 0.0281832,-1.9522697 C 0.95862123,1.5798528 1.5685797,0.95821856 2.8790845,0.89863191 3.3887924,0.87568295 3.5413827,0.87085164 4.8313542,0.87085164 Z M 4.8313542,0 C 3.519239,0 3.3549729,0.00563658 2.8396285,0.02898813 1.0850416,0.1095107 0.10991331,1.0830286 0.02939074,2.8392259 0.00563658,3.3549729 0,3.519239 0,4.8313542 0,6.1434696 0.00563658,6.3081382 0.02898813,6.8234827 0.1095107,8.5780695 1.0830286,9.5531981 2.8392259,9.6337203 c 0.515747,0.023349 0.6800131,0.028986 1.9921283,0.028986 1.3121154,0 1.476784,-0.00563 1.9921285,-0.028986 1.752976,-0.080522 2.7305204,-1.0540407 2.8098351,-2.8102376 0.023758,-0.5153445 0.029394,-0.6800131 0.029394,-1.9921285 0,-1.3121152 -0.00563,-1.4763813 -0.028986,-1.9917257 C 9.5548082,1.0866521 8.5800828,0.10991331 6.8238853,0.02939074 6.3081382,0.00563658 6.1434696,0 4.8313542,0 Z m 0,2.3504539 c -1.3700915,0 -2.4809003,1.1108088 -2.4809003,2.4809003 0,1.3700916 1.1108088,2.4813029 2.4809003,2.4813029 1.3700916,0 2.4809004,-1.1108087 2.4809004,-2.4813029 0,-1.3700915 -1.1108088,-2.4809003 -2.4809004,-2.4809003 z m 0,4.0913518 c -0.8893717,0 -1.6104514,-0.720677 -1.6104514,-1.6104515 0,-0.8893717 0.7210797,-1.6104514 1.6104514,-1.6104514 0.8893719,0 1.6104515,0.7210797 1.6104515,1.6104514 0,0.8897745 -0.7210796,1.6104515 -1.6104515,1.6104515 z m 2.579138,-4.7689493 c -0.3204797,0 -0.5801651,0.2596853 -0.5801651,0.5797625 0,0.3200773 0.2596854,0.5797625 0.5801651,0.5797625 0.3200772,0 0.5793602,-0.2596852 0.5793602,-0.5797625 0,-0.3200772 -0.259283,-0.5797625 -0.5793602,-0.5797625 z"
     id="path2"
     style="stroke-width:0.402613" />
</svg>
